<svg width="162" height="24" viewBox="0 0 162 24" fill="none" xmlns="http://www.w3.org/2000/svg">
<g clip-path="url(#clip0_3813_3200)">
<path d="M11.997 6.74011C12.5445 6.74011 12.9884 6.29625 12.9884 5.74872C12.9884 5.20119 12.5445 4.75732 11.997 4.75732C11.4495 4.75732 11.0056 5.20119 11.0056 5.74872C11.0056 6.29625 11.4495 6.74011 11.997 6.74011Z" fill="#0056FE"/>
<path d="M17.3559 13.201C17.9034 13.201 18.3473 12.7571 18.3473 12.2096C18.3473 11.6621 17.9034 11.2182 17.3559 11.2182C16.8084 11.2182 16.3645 11.6621 16.3645 12.2096C16.3645 12.7571 16.8084 13.201 17.3559 13.201Z" fill="#0056FE"/>
<path d="M6.94061 10.9641C7.48814 10.9641 7.932 10.5202 7.932 9.97272C7.932 9.42518 7.48814 8.98132 6.94061 8.98132C6.39308 8.98132 5.94922 9.42518 5.94922 9.97272C5.94922 10.5202 6.39308 10.9641 6.94061 10.9641Z" fill="#0056FE"/>
<path d="M24 14.4785V9.52325H20.6291C20.442 8.87214 20.181 8.24459 19.8512 7.65282L22.2368 5.26726L18.7327 1.76324L16.3472 4.14881C15.7551 3.81901 15.1273 3.55802 14.4759 3.37091V0H9.52065V3.37091C8.87027 3.55851 8.24335 3.81949 7.65196 4.14881L5.26553 1.76152L1.76152 5.26553L4.14881 7.65196C3.81913 8.24408 3.55814 8.87191 3.37091 9.52325H0V14.4785H3.37091C3.5582 15.1295 3.81919 15.7571 4.14881 16.3489L1.76324 18.7336L3.04678 20.018L6.23099 16.8087V11.9581C5.76334 11.7903 5.36993 11.4628 5.12005 11.0333C4.87016 10.6039 4.77985 10.1001 4.86503 9.61056C4.9502 9.12107 5.20539 8.67733 5.58563 8.35754C5.96588 8.03774 6.44679 7.86239 6.94364 7.86239C7.44049 7.86239 7.9214 8.03774 8.30164 8.35754C8.68189 8.67733 8.93708 9.12107 9.02225 9.61056C9.10742 10.1001 9.01711 10.6039 8.76723 11.0333C8.51735 11.4628 8.12393 11.7903 7.65628 11.9581V17.3922L4.05287 21.0224L5.26294 22.2324L7.6485 19.8469C8.23973 20.1765 8.86669 20.4375 9.5172 20.6248V23.9957H11.2839V7.73407C10.8162 7.56625 10.4228 7.23877 10.1729 6.80933C9.92307 6.3799 9.83276 5.87605 9.91793 5.38655C10.0031 4.89706 10.2583 4.45333 10.6385 4.13353C11.0188 3.81373 11.4997 3.63839 11.9965 3.63839C12.4934 3.63839 12.9743 3.81373 13.3545 4.13353C13.7348 4.45333 13.99 4.89706 14.0752 5.38655C14.1603 5.87605 14.07 6.3799 13.8201 6.80933C13.5703 7.23877 13.1768 7.56625 12.7092 7.73407V24H14.4724V20.6291C15.1241 20.442 15.7522 20.181 16.3446 19.8512L18.7284 22.235L19.9722 20.9912L16.6428 17.616V14.195C16.1751 14.0272 15.7817 13.6997 15.5318 13.2702C15.2819 12.8408 15.1916 12.337 15.2768 11.8475C15.362 11.358 15.6172 10.9142 15.9974 10.5944C16.3777 10.2746 16.8586 10.0993 17.3554 10.0993C17.8523 10.0993 18.3332 10.2746 18.7134 10.5944C19.0937 10.9142 19.3489 11.358 19.434 11.8475C19.5192 12.337 19.4289 12.8408 19.179 13.2702C18.9291 13.6997 18.5357 14.0272 18.0681 14.195V17.0274L20.9809 19.9817L22.2324 18.7301L19.8477 16.3463C20.1774 15.7548 20.4384 15.1275 20.6256 14.4768L24 14.4785Z" fill="#0056FE"/>
</g>
<path d="M33.316 7.2H35.136V15.46H40.26V17H33.316V7.2ZM44.4532 9.44C45.5546 9.44 46.3946 9.706 46.9732 10.238C47.5612 10.7607 47.8552 11.554 47.8552 12.618V17H46.2032V16.09C45.9886 16.4167 45.6806 16.6687 45.2792 16.846C44.8872 17.014 44.4112 17.098 43.8512 17.098C43.2912 17.098 42.8012 17.0047 42.3812 16.818C41.9612 16.622 41.6346 16.356 41.4012 16.02C41.1772 15.6747 41.0652 15.2873 41.0652 14.858C41.0652 14.186 41.3126 13.6493 41.8072 13.248C42.3112 12.8373 43.0999 12.632 44.1732 12.632H46.1052V12.52C46.1052 11.9973 45.9466 11.596 45.6292 11.316C45.3212 11.036 44.8592 10.896 44.2432 10.896C43.8232 10.896 43.4079 10.9613 42.9972 11.092C42.5959 11.2227 42.2552 11.4047 41.9752 11.638L41.2892 10.364C41.6812 10.0653 42.1526 9.83667 42.7032 9.678C43.2539 9.51933 43.8372 9.44 44.4532 9.44ZM44.2152 15.824C44.6539 15.824 45.0412 15.726 45.3772 15.53C45.7226 15.3247 45.9652 15.0353 46.1052 14.662V13.794H44.2992C43.2912 13.794 42.7872 14.1253 42.7872 14.788C42.7872 15.1053 42.9132 15.3573 43.1652 15.544C43.4172 15.7307 43.7672 15.824 44.2152 15.824ZM54.3431 9.44C55.2858 9.44 56.0418 9.71533 56.6111 10.266C57.1805 10.8167 57.4651 11.6333 57.4651 12.716V17H55.7151V12.94C55.7151 12.2867 55.5611 11.7967 55.2531 11.47C54.9451 11.134 54.5065 10.966 53.9371 10.966C53.2931 10.966 52.7845 11.162 52.4111 11.554C52.0378 11.9367 51.8511 12.492 51.8511 13.22V17H50.1011V9.524H51.7671V10.49C52.0565 10.1447 52.4205 9.88333 52.8591 9.706C53.2978 9.52867 53.7925 9.44 54.3431 9.44ZM67.0755 6.612V17H65.3955V16.034C65.1061 16.3887 64.7468 16.6547 64.3175 16.832C63.8975 17.0093 63.4308 17.098 62.9175 17.098C62.1988 17.098 61.5501 16.9393 60.9715 16.622C60.4021 16.3047 59.9541 15.8567 59.6275 15.278C59.3008 14.69 59.1375 14.018 59.1375 13.262C59.1375 12.506 59.3008 11.8387 59.6275 11.26C59.9541 10.6813 60.4021 10.2333 60.9715 9.916C61.5501 9.59867 62.1988 9.44 62.9175 9.44C63.4121 9.44 63.8648 9.524 64.2755 9.692C64.6861 9.86 65.0361 10.112 65.3255 10.448V6.612H67.0755ZM63.1275 15.6C63.5475 15.6 63.9255 15.5067 64.2615 15.32C64.5975 15.124 64.8635 14.8487 65.0595 14.494C65.2555 14.1393 65.3535 13.7287 65.3535 13.262C65.3535 12.7953 65.2555 12.3847 65.0595 12.03C64.8635 11.6753 64.5975 11.4047 64.2615 11.218C63.9255 11.022 63.5475 10.924 63.1275 10.924C62.7075 10.924 62.3295 11.022 61.9935 11.218C61.6575 11.4047 61.3915 11.6753 61.1955 12.03C60.9995 12.3847 60.9015 12.7953 60.9015 13.262C60.9015 13.7287 60.9995 14.1393 61.1955 14.494C61.3915 14.8487 61.6575 15.124 61.9935 15.32C62.3295 15.5067 62.7075 15.6 63.1275 15.6ZM69.3648 9.524H71.1148V17H69.3648V9.524ZM70.2468 8.292C69.9295 8.292 69.6635 8.194 69.4488 7.998C69.2341 7.79267 69.1268 7.54067 69.1268 7.242C69.1268 6.94333 69.2341 6.696 69.4488 6.5C69.6635 6.29467 69.9295 6.192 70.2468 6.192C70.5641 6.192 70.8301 6.29 71.0448 6.486C71.2595 6.67267 71.3668 6.91067 71.3668 7.2C71.3668 7.508 71.2595 7.76933 71.0448 7.984C70.8395 8.18933 70.5735 8.292 70.2468 8.292ZM77.6537 9.44C78.5963 9.44 79.3523 9.71533 79.9217 10.266C80.491 10.8167 80.7757 11.6333 80.7757 12.716V17H79.0257V12.94C79.0257 12.2867 78.8717 11.7967 78.5637 11.47C78.2557 11.134 77.817 10.966 77.2477 10.966C76.6037 10.966 76.095 11.162 75.7217 11.554C75.3483 11.9367 75.1617 12.492 75.1617 13.22V17H73.4117V9.524H75.0777V10.49C75.367 10.1447 75.731 9.88333 76.1697 9.706C76.6083 9.52867 77.103 9.44 77.6537 9.44ZM90.484 9.524V15.866C90.484 18.498 89.14 19.814 86.452 19.814C85.7333 19.814 85.052 19.7207 84.408 19.534C83.764 19.3567 83.232 19.0953 82.812 18.75L83.596 17.434C83.9227 17.7047 84.3333 17.9193 84.828 18.078C85.332 18.246 85.8407 18.33 86.354 18.33C87.1753 18.33 87.7773 18.1433 88.16 17.77C88.5427 17.3967 88.734 16.8273 88.734 16.062V15.67C88.4353 15.9967 88.0713 16.244 87.642 16.412C87.2127 16.58 86.7413 16.664 86.228 16.664C85.5187 16.664 84.8747 16.5147 84.296 16.216C83.7267 15.908 83.274 15.4787 82.938 14.928C82.6113 14.3773 82.448 13.7473 82.448 13.038C82.448 12.3287 82.6113 11.7033 82.938 11.162C83.274 10.6113 83.7267 10.1867 84.296 9.888C84.8747 9.58933 85.5187 9.44 86.228 9.44C86.7693 9.44 87.2593 9.52867 87.698 9.706C88.146 9.88333 88.5193 10.154 88.818 10.518V9.524H90.484ZM86.494 15.18C87.1567 15.18 87.698 14.984 88.118 14.592C88.5473 14.1907 88.762 13.6727 88.762 13.038C88.762 12.4127 88.5473 11.904 88.118 11.512C87.698 11.12 87.1567 10.924 86.494 10.924C85.822 10.924 85.2713 11.12 84.842 11.512C84.422 11.904 84.212 12.4127 84.212 13.038C84.212 13.6727 84.422 14.1907 84.842 14.592C85.2713 14.984 85.822 15.18 86.494 15.18ZM92.9527 7.2H94.7727V15.46H99.8967V17H92.9527V7.2ZM108.125 13.304C108.125 13.4253 108.116 13.598 108.097 13.822H102.231C102.334 14.3727 102.6 14.8113 103.029 15.138C103.468 15.4553 104.009 15.614 104.653 15.614C105.475 15.614 106.151 15.3433 106.683 14.802L107.621 15.88C107.285 16.2813 106.861 16.5847 106.347 16.79C105.834 16.9953 105.255 17.098 104.611 17.098C103.79 17.098 103.067 16.9347 102.441 16.608C101.816 16.2813 101.331 15.8287 100.985 15.25C100.649 14.662 100.481 13.9993 100.481 13.262C100.481 12.534 100.645 11.8807 100.971 11.302C101.307 10.714 101.769 10.2567 102.357 9.93C102.945 9.60333 103.608 9.44 104.345 9.44C105.073 9.44 105.722 9.60333 106.291 9.93C106.87 10.2473 107.318 10.7 107.635 11.288C107.962 11.8667 108.125 12.5387 108.125 13.304ZM104.345 10.84C103.785 10.84 103.309 11.008 102.917 11.344C102.535 11.6707 102.301 12.1093 102.217 12.66H106.459C106.385 12.1187 106.156 11.68 105.773 11.344C105.391 11.008 104.915 10.84 104.345 10.84ZM114.048 9.44C114.991 9.44 115.747 9.71533 116.316 10.266C116.886 10.8167 117.17 11.6333 117.17 12.716V17H115.42V12.94C115.42 12.2867 115.266 11.7967 114.958 11.47C114.65 11.134 114.212 10.966 113.642 10.966C112.998 10.966 112.49 11.162 112.116 11.554C111.743 11.9367 111.556 12.492 111.556 13.22V17H109.806V9.524H111.472V10.49C111.762 10.1447 112.126 9.88333 112.564 9.706C113.003 9.52867 113.498 9.44 114.048 9.44ZM121.7 17.098C121.094 17.098 120.501 17.0187 119.922 16.86C119.344 16.7013 118.882 16.5007 118.536 16.258L119.208 14.928C119.544 15.152 119.946 15.334 120.412 15.474C120.888 15.6047 121.355 15.67 121.812 15.67C122.858 15.67 123.38 15.3947 123.38 14.844C123.38 14.5827 123.245 14.4007 122.974 14.298C122.713 14.1953 122.288 14.0973 121.7 14.004C121.084 13.9107 120.58 13.8033 120.188 13.682C119.806 13.5607 119.47 13.3507 119.18 13.052C118.9 12.744 118.76 12.3193 118.76 11.778C118.76 11.0687 119.054 10.504 119.642 10.084C120.24 9.65467 121.042 9.44 122.05 9.44C122.564 9.44 123.077 9.50067 123.59 9.622C124.104 9.734 124.524 9.888 124.85 10.084L124.178 11.414C123.544 11.0407 122.83 10.854 122.036 10.854C121.523 10.854 121.131 10.9333 120.86 11.092C120.599 11.2413 120.468 11.442 120.468 11.694C120.468 11.974 120.608 12.1747 120.888 12.296C121.178 12.408 121.621 12.5153 122.218 12.618C122.816 12.7113 123.306 12.8187 123.688 12.94C124.071 13.0613 124.398 13.2667 124.668 13.556C124.948 13.8453 125.088 14.256 125.088 14.788C125.088 15.488 124.785 16.048 124.178 16.468C123.572 16.888 122.746 17.098 121.7 17.098ZM135.21 17.14C134.212 17.14 133.311 16.9253 132.508 16.496C131.706 16.0573 131.076 15.4553 130.618 14.69C130.161 13.9153 129.932 13.052 129.932 12.1C129.932 11.148 130.161 10.2893 130.618 9.524C131.076 8.74933 131.706 8.14733 132.508 7.718C133.311 7.27933 134.212 7.06 135.21 7.06C136.209 7.06 137.11 7.27933 137.912 7.718C138.715 8.14733 139.345 8.74467 139.802 9.51C140.26 10.2753 140.488 11.1387 140.488 12.1C140.488 13.0613 140.26 13.9247 139.802 14.69C139.345 15.4553 138.715 16.0573 137.912 16.496C137.11 16.9253 136.209 17.14 135.21 17.14ZM135.21 15.544C135.864 15.544 136.452 15.3993 136.974 15.11C137.497 14.8113 137.908 14.4007 138.206 13.878C138.505 13.346 138.654 12.7533 138.654 12.1C138.654 11.4467 138.505 10.8587 138.206 10.336C137.908 9.804 137.497 9.39333 136.974 9.104C136.452 8.80533 135.864 8.656 135.21 8.656C134.557 8.656 133.969 8.80533 133.446 9.104C132.924 9.39333 132.513 9.804 132.214 10.336C131.916 10.8587 131.766 11.4467 131.766 12.1C131.766 12.7533 131.916 13.346 132.214 13.878C132.513 14.4007 132.924 14.8113 133.446 15.11C133.969 15.3993 134.557 15.544 135.21 15.544ZM146.954 17.14C145.964 17.14 145.068 16.9253 144.266 16.496C143.472 16.0573 142.847 15.4553 142.39 14.69C141.942 13.9247 141.718 13.0613 141.718 12.1C141.718 11.1387 141.946 10.2753 142.404 9.51C142.861 8.74467 143.486 8.14733 144.28 7.718C145.082 7.27933 145.978 7.06 146.968 7.06C147.77 7.06 148.503 7.2 149.166 7.48C149.828 7.76 150.388 8.166 150.846 8.698L149.67 9.804C148.96 9.03867 148.088 8.656 147.052 8.656C146.38 8.656 145.778 8.80533 145.246 9.104C144.714 9.39333 144.298 9.79933 144 10.322C143.701 10.8447 143.552 11.4373 143.552 12.1C143.552 12.7627 143.701 13.3553 144 13.878C144.298 14.4007 144.714 14.8113 145.246 15.11C145.778 15.3993 146.38 15.544 147.052 15.544C148.088 15.544 148.96 15.1567 149.67 14.382L150.846 15.502C150.388 16.034 149.824 16.44 149.152 16.72C148.489 17 147.756 17.14 146.954 17.14ZM159.001 17L156.999 14.13C156.915 14.1393 156.789 14.144 156.621 14.144H154.409V17H152.589V7.2H156.621C157.471 7.2 158.208 7.34 158.833 7.62C159.468 7.9 159.953 8.30133 160.289 8.824C160.625 9.34667 160.793 9.96733 160.793 10.686C160.793 11.4233 160.611 12.058 160.247 12.59C159.893 13.122 159.379 13.5187 158.707 13.78L160.961 17H159.001ZM158.959 10.686C158.959 10.0607 158.754 9.58 158.343 9.244C157.933 8.908 157.331 8.74 156.537 8.74H154.409V12.646H156.537C157.331 12.646 157.933 12.478 158.343 12.142C158.754 11.7967 158.959 11.3113 158.959 10.686Z" fill="#0056FE"/>
<defs>
<clipPath id="clip0_3813_3200">
<rect width="24" height="24" fill="white"/>
</clipPath>
</defs>
</svg>
